<?xml version="1.0" standalone="no"?>
<!DOCTYPE svg PUBLIC "-//W3C//DTD SVG 20010904//EN"
 "http://www.w3.org/TR/2001/REC-SVG-20010904/DTD/svg10.dtd">
<svg version="1.0" xmlns="http://www.w3.org/2000/svg"
 width="214.000000pt" height="214.000000pt" viewBox="0 0 214.000000 214.000000"
 preserveAspectRatio="xMidYMid meet">
<metadata>
Created by potrace 1.11, written by Peter Selinger 2001-2013
</metadata>
<g transform="translate(0.000000,214.000000) scale(0.100000,-0.100000)"
fill="#000000" stroke="none">
<path d="M1214 1747 c-5 -15 -133 -453 -139 -478 -2 -9 -19 -70 -39 -135 -19
-66 -74 -254 -121 -419 -47 -165 -95 -329 -106 -364 -18 -58 -18 -66 -4 -81
23 -25 96 -43 112 -27 13 12 60 168 248 822 59 204 120 415 137 469 16 55 32
111 35 125 2 13 6 28 9 33 3 4 2 17 -1 28 -10 32 -120 55 -131 27z"/>
<path d="M595 1550 c-29 -12 -545 -533 -545 -551 0 -8 123 -137 273 -287 225
-225 276 -272 293 -266 26 11 84 76 81 92 -1 8 -102 114 -225 236 l-222 221
225 227 c124 125 225 233 225 240 0 8 -19 32 -42 55 -34 32 -47 39 -63 33z"/>
<path d="M1484 1516 c-24 -24 -44 -48 -44 -53 0 -5 102 -112 227 -237 l226
-228 -228 -228 c-202 -202 -226 -230 -216 -247 12 -23 77 -83 90 -83 16 0 551
543 551 559 0 16 -538 561 -554 561 -5 0 -28 -20 -52 -44z"/>
</g>
</svg>
